<?xml version="1.0" encoding="UTF-8" standalone="no"?>
<!-- Created with Inkscape (http://www.inkscape.org/) -->

<svg
   xmlns:dc="http://purl.org/dc/elements/1.1/"
   xmlns:cc="http://creativecommons.org/ns#"
   xmlns:rdf="http://www.w3.org/1999/02/22-rdf-syntax-ns#"
   xmlns:svg="http://www.w3.org/2000/svg"
   xmlns="http://www.w3.org/2000/svg"
   xmlns:sodipodi="http://sodipodi.sourceforge.net/DTD/sodipodi-0.dtd"
   xmlns:inkscape="http://www.inkscape.org/namespaces/inkscape"
   width="152.8407mm"
   height="33.020004mm"
   viewBox="0 0 541.56153 117.00001"
   id="svg3548"
   version="1.1"
   inkscape:version="0.91 r13725"
   sodipodi:docname="taskotron.svg">
  <defs
     id="defs3550" />
  <sodipodi:namedview
     id="base"
     pagecolor="#ffffff"
     bordercolor="#666666"
     borderopacity="1.0"
     inkscape:pageopacity="0.0"
     inkscape:pageshadow="2"
     inkscape:zoom="1.979899"
     inkscape:cx="254.20628"
     inkscape:cy="13.732789"
     inkscape:document-units="px"
     inkscape:current-layer="layer1"
     showgrid="false"
     fit-margin-top="0"
     fit-margin-left="0"
     fit-margin-right="0"
     fit-margin-bottom="0"
     inkscape:window-width="1869"
     inkscape:window-height="1016"
     inkscape:window-x="1971"
     inkscape:window-y="277"
     inkscape:window-maximized="1" />
  <metadata
     id="metadata3553">
    <rdf:RDF>
      <cc:Work
         rdf:about="">
        <dc:format>image/svg+xml</dc:format>
        <dc:type
           rdf:resource="http://purl.org/dc/dcmitype/StillImage" />
        <dc:title></dc:title>
      </cc:Work>
    </rdf:RDF>
  </metadata>
  <g
     inkscape:label="Layer 1"
     inkscape:groupmode="layer"
     id="layer1"
     transform="translate(-107.01628,-333.22243)">
    <g
       id="g5313"
       transform="translate(-144.75325,-51.724965)">
      <path
         d="m 574.31747,465.93712 c 0,-4.6652 -0.022,-10.1319 -0.022,-10.1319 l 13.2483,0 0,-24.6367 -20.5845,-0.043 c 0,0 0,34.0123 -0.011,34.8116 -0.117,-0.019 -4.8333,0 -4.8333,0 l -5.1537,-5.1537 0,-34.5838 5.2826,-5.2631 29.8084,0.021 5.0859,5.1537 0,39.7375 c -9.0794,0.1723 -17.0225,0.088 -22.8202,0.088 z"
         style="font-style:normal;font-variant:normal;font-weight:normal;font-stretch:normal;font-size:67.56756592px;line-height:125%;font-family:loaded;-inkscape-font-specification:loaded;letter-spacing:1.63800144px;word-spacing:0px;fill:#535452;fill-opacity:1;stroke:none;stroke-width:1px;stroke-linecap:butt;stroke-linejoin:miter;stroke-opacity:1"
         id="path4798"
         inkscape:connector-curvature="0"
         sodipodi:nodetypes="ccccccccccccccc" />
      <g
         style="fill:#535452;fill-opacity:1"
         id="g4800"
         transform="translate(24.19388,-514.91484)">
        <path
           sodipodi:nodetypes="ccccccc"
           inkscape:connector-curvature="0"
           d="m 517.42038,980.86302 -22.7564,-22.63636 22.7564,-22.36364 12.22779,0 -22.43625,22.36364 22.43625,22.63636 z"
           style="font-style:normal;font-variant:normal;font-weight:normal;font-stretch:normal;font-size:67.56756592px;line-height:125%;font-family:loaded;-inkscape-font-specification:loaded;letter-spacing:1.63800144px;word-spacing:0px;fill:#535452;fill-opacity:1;stroke:none;stroke-width:1px;stroke-linecap:butt;stroke-linejoin:miter;stroke-opacity:0.77410464"
           id="path4802" />
        <rect
           y="935.86304"
           x="490.38315"
           height="45"
           width="10.232907"
           id="rect4804"
           style="opacity:1;fill:#535452;fill-opacity:1;stroke:none;stroke-width:4;stroke-linecap:round;stroke-linejoin:round;stroke-miterlimit:4;stroke-dasharray:none;stroke-dashoffset:4;stroke-opacity:0.77410464" />
      </g>
      <path
         style="font-style:normal;font-variant:normal;font-weight:normal;font-stretch:normal;font-size:67.56756592px;line-height:125%;font-family:loaded;-inkscape-font-specification:loaded;letter-spacing:1.63800144px;word-spacing:0px;fill:#535452;fill-opacity:1;stroke:none;stroke-width:1px;stroke-linecap:butt;stroke-linejoin:miter;stroke-opacity:1"
         d="m 653.48878,420.94862 0,44.9746 10.16999,0 -0.01,-34.9258 20.1621,-0.01 c 0,0 0.044,4.433 0.019,7.334 l -14.69141,0 0,10.0449 -0.02,0 17.56641,17.5801 12.2285,0 -17.3047,-17.5625 12.25,0 0,-22.3223 -5.04691,-5.1152 -35.32619,0 z"
         id="path4806"
         inkscape:connector-curvature="0" />
      <path
         inkscape:connector-curvature="0"
         id="path4808"
         style="font-style:normal;font-variant:normal;font-weight:normal;font-stretch:normal;font-size:67.56756592px;line-height:125%;font-family:loaded;-inkscape-font-specification:loaded;letter-spacing:1.63800144px;word-spacing:0px;fill:#535452;fill-opacity:1;stroke:none;stroke-width:1px;stroke-linecap:butt;stroke-linejoin:miter;stroke-opacity:1"
         d="m 793.33107,465.94842 -10.0046,0 -20.2029,-27.4325 0,27.4325 -10.0047,0 0,-45 10.0047,0 20.2029,27.6351 0,-27.6351 10.0046,0 0,45 0,0 z" />
      <path
         inkscape:connector-curvature="0"
         style="font-style:normal;font-variant:normal;font-weight:normal;font-stretch:normal;font-size:67.56756592px;line-height:125%;font-family:loaded;-inkscape-font-specification:loaded;letter-spacing:-2.09637547px;word-spacing:0px;fill:#535452;fill-opacity:1;stroke:none;stroke-width:1px;stroke-linecap:butt;stroke-linejoin:miter;stroke-opacity:1"
         d="m 369.16458,420.94842 0,10.1816 15.3399,0 0,34.8184 10.1816,0 0,-34.8184 15.3399,0 0,-10.1816 -40.8614,0 z"
         id="path4810" />
      <path
         inkscape:connector-curvature="0"
         id="path4812"
         style="font-style:normal;font-variant:normal;font-weight:normal;font-stretch:normal;font-size:67.56756592px;line-height:125%;font-family:loaded;-inkscape-font-specification:loaded;letter-spacing:1.63800144px;word-spacing:0px;fill:#535452;fill-opacity:1;stroke:none;stroke-width:1px;stroke-linecap:butt;stroke-linejoin:miter;stroke-opacity:1"
         d="m 505.88197,460.73002 -5.1506,5.2184 -35.1732,0 0,-10.1657 30.2937,0 0,-7.2515 -30.2937,0 0,-22.3645 5.15061,-5.2183 35.17319,0 0,10.0979 -30.2937,0 0,7.3192 30.2937,0 0,22.3645 0,0 z" />
      <path
         d="m 456.82298,426.25422 0,39.6941 -35.1806,0 -5.1434,-5.2208 0,-22.3602 22.88889,0.016 0,10.1489 -12.86439,-0.01 0.015,7.2564 20.2521,-0.012 0.001,-24.7152 -30.2929,-0.012 0,-10.0943 35.17441,0 5.14959,5.2201 z"
         style="font-style:normal;font-variant:normal;font-weight:normal;font-stretch:normal;font-size:67.56756592px;line-height:125%;font-family:loaded;-inkscape-font-specification:loaded;letter-spacing:0px;word-spacing:0px;fill:#535452;fill-opacity:1;stroke:none;stroke-width:0.74159491px;stroke-linecap:butt;stroke-linejoin:miter;stroke-opacity:1"
         id="path4814"
         inkscape:connector-curvature="0"
         sodipodi:nodetypes="cccccccccccccccc" />
      <path
         sodipodi:nodetypes="ccccccccccccccc"
         inkscape:connector-curvature="0"
         id="path4816"
         style="font-style:normal;font-variant:normal;font-weight:normal;font-stretch:normal;font-size:67.56756592px;line-height:125%;font-family:loaded;-inkscape-font-specification:loaded;letter-spacing:1.63800144px;word-spacing:0px;fill:#535452;fill-opacity:1;stroke:none;stroke-width:1px;stroke-linecap:butt;stroke-linejoin:miter;stroke-opacity:1"
         d="m 726.99267,465.94502 c 0,-4.6652 0.022,-10.1319 0.022,-10.1319 l -13.24829,0 0,-24.6367 20.5846,-0.043 c 0,0 0,34.0124 0.011,34.8116 0.11699,-0.019 4.8333,0 4.8333,0 l 5.15369,-5.1536 0,-34.5839 -5.24749,-5.2591 -29.8435,0.017 -5.0859,5.1536 0,39.7376 c 9.0793,0.1722 17.0225,0.088 22.8201,0.088 z" />
      <path
         id="path4818"
         d="m 605.50407,420.94842 0,10.1816 15.3399,0 0,34.8184 10.1816,0 0,-34.8184 15.3398,0 0,-10.1816 -40.8613,0 z"
         style="font-style:normal;font-variant:normal;font-weight:normal;font-stretch:normal;font-size:67.56756592px;line-height:125%;font-family:loaded;-inkscape-font-specification:loaded;letter-spacing:-2.09637547px;word-spacing:0px;fill:#535452;fill-opacity:1;stroke:none;stroke-width:1px;stroke-linecap:butt;stroke-linejoin:miter;stroke-opacity:1"
         inkscape:connector-curvature="0" />
    </g>
    <path
       style="display:inline;opacity:1;fill:#639a81;fill-opacity:1;stroke:none;stroke-width:2;stroke-linecap:round;stroke-linejoin:round;stroke-miterlimit:4;stroke-dasharray:none;stroke-dashoffset:0;stroke-opacity:1"
       d="m 154.08659,333.22244 -46.57031,26.8867 47.26367,26.45901 0,4.4062 -47.76367,-26.74021 0,58.8125 47.07031,27.1758 47.07031,-27.1758 0,-18.336 -47.07031,27.1758 -24.57813,-14.1914 0,-16.4785 24.57813,14.1914 47.07031,-27.1758 0,-27.834 -47.07031,-27.1757 z"
       id="path5251"
       inkscape:connector-curvature="0" />
  </g>
</svg>
